<svg height="512" width="512" xmlns="http://www.w3.org/2000/svg"><path d="m-1-1h802v602h-802z" fill="none"/><path d="m256 0c-141.36328 0-256 114.63672-256 256s114.63672 256 256 256 256-114.63672 256-256-114.63672-256-256-256zm-74.39062 387h-62.34766v-187.57422h62.34766zm-31.17188-213.1875h-.40625c-20.92187 0-34.45312-14.40234-34.45312-32.40234 0-18.40625 13.94531-32.41016 35.27343-32.41016 21.32813 0 34.45313 14.00391 34.85938 32.41016 0 18-13.53125 32.40234-35.27344 32.40234zm255.98438 213.1875h-62.33985v-100.34766c0-25.21875-9.02734-42.41797-31.58594-42.41797-17.22265 0-27.48046 11.60157-31.98828 22.80079-1.64843 4.00781-2.05078 9.60937-2.05078 15.21484v104.75h-62.34375s.81641-169.97656 0-187.57422h62.34375v26.5586c8.28516-12.78125 23.10938-30.96094 56.1875-30.96094 41.01953 0 71.77735 26.80859 71.77735 84.42187zm0 0" fill="#fc0"/></svg>