<svg height="91" viewBox="0 0 91 91" width="91" xmlns="http://www.w3.org/2000/svg"><path d="m45.516.674c-24.668 0-44.667 19.998-44.667 44.668 0 24.669 19.999 44.667 44.667 44.667s44.668-19.998 44.668-44.667c0-24.67-19.998-44.668-44.668-44.668zm15.58 52.113h-3.479l-7.504 14.773-3.276-7.589 3.116-5.399c-1.422.369-2.902.594-4.438.594-1.535 0-3.016-.225-4.438-.594l3.117 5.399-3.276 7.59-7.505-14.774h-3.477c-8.22 0-15.893 5.609-18.895 13.152-3.63-6.029-5.747-13.063-5.747-20.6 0-22.178 18.044-40.221 40.221-40.221 22.178 0 40.221 18.043 40.221 40.221 0 7.536-2.117 14.568-5.746 20.6-3.004-7.543-10.676-13.152-18.894-13.152zm-15.58-40.313c-9.879 0-17.888 8.014-17.888 17.888 0 9.879 8.008 22.516 17.888 22.516 9.879 0 17.889-12.637 17.889-22.516-.003-9.877-8.01-17.888-17.889-17.888z" fill="#333" fill-rule="evenodd"/></svg>