<svg height="45.298" viewBox="0 0 40.587 11.985" width="153.4" xmlns="http://www.w3.org/2000/svg"><g fill="#fc0"><g transform="translate(-23.525 -60.351)"><path d="m28.088352 67.863998v-5.079633l-.04651.315216-1.720771 4.764417h-.351388l-1.736274-4.764417-.04134-.315216v5.079633h-.666605v-7.410167h.346222l2.247854 6.076957.02067.273877.02067-.273877 2.242687-6.076957h.351389v7.410167z"/><path d="m33.229995 66.13806h-2.346036l-.485743 1.725938h-.692443l2.170342-7.410167h.351389l2.180677 7.410167h-.687275zm-2.165174-.6356h1.98948l-.976654-3.415705-.02067-.273876-.02067.273876z"/><path d="m38.852215 67.863998-2.01015-3.162498h-.914644v3.162498h-.666605v-7.410167h2.351203q.377226 0 .707945.14469.330719.139522.578758.387561.248039.248039.387561.583925.144689.330719.144689.707945v.599428q0 .377226-.144689.713112-.139522.330719-.387561.578758-.248039.248039-.578758.392728-.330719.139522-.707945.139522l2.01015 3.162498zm-.08785-5.586046q0-.248039-.09301-.459906-.09302-.217034-.253207-.377226-.160192-.165359-.377226-.258374-.211867-.09302-.459906-.09302h-1.653595v2.976474h1.653593q.248039 0 .459906-.09301.217034-.09302.377226-.253207.160192-.165359.253207-.377226.09301-.217034.09301-.465073z"/><path d="m40.888202 67.863998v-7.410167h.666605v7.410167z"/><path d="m47.306213 66.148395q0 .377226-.14469.707945-.139522.330718-.387561.578758-.248039.248039-.578758.392728-.330718.139522-.707944.139522h-.527083q-.377227 0-.713113-.139522-.330719-.144689-.578758-.392728-.248039-.24804-.392728-.578758-.139522-.330719-.139522-.707945v-3.97896q0-.377226.139522-.707945.144689-.330719.392728-.578758.248039-.248039.578758-.387561.335886-.144689.713113-.144689h.527083q.377226 0 .707944.144689.330719.139522.578758.387561.248039.248039.387561.578758.14469.330719.14469.707945v.299714l-.666605.103349v-.403063q0-.248039-.09302-.459906-.09302-.217034-.253206-.377226-.160192-.160192-.377227-.253207-.211866-.09301-.459905-.09301h-.465074q-.248039 0-.465073.09301-.211867.09302-.377226.253207-.160192.160192-.253206.377226-.09302.211867-.09302.459906v3.97896q0 .248039.09302.465073.09301.211867.253206.377226.165359.160192.377226.253207.217034.09301.465073.09301h.465074q.248039 0 .459905-.09301.217035-.09301.377227-.253207.160191-.165359.253206-.377226.09302-.217034.09302-.465073v-.403064l.666605.108517z"/><path d="m52.287664 67.863998v-3.384699h-2.836947v3.384699h-.666605v-7.410167h.666605v3.389868h2.836947v-3.389868h.666605v7.410167z"/><path d="m58.271607 67.863998-2.790439-3.705083 2.790439-3.705084h.826797l-2.847282 3.705084 2.847282 3.705083zm-3.617236 0v-7.410167h.666605v7.410167z"/><path d="m62.932673 66.13806h-2.346036l-.485744 1.725938h-.692442l2.170342-7.410167h.351389l2.180676 7.410167h-.687275zm-2.165175-.6356h1.98948l-.976653-3.415705-.02067-.273876-.02067.273876z"/></g><g stroke-width=".226" transform="matrix(1.0664 0 0 .93771 -23.525 -60.351)"><path d="m35.366824 77.087997v-2.599574l-.0238.161317-.880629 2.438257h-.179828l-.888563-2.438257-.02116-.161317v2.599574h-.341141v-3.792257h.177183l1.150371 3.109968.01058.140161.01058-.140161 1.147726-3.109968h.179828v3.792257z"/><path d="m38.653976 76.210013q0 .193051-.07405.362301-.0714.16925-.19834.296187-.126937.126938-.296187.200985-.16925.0714-.362301.0714h-.269742q-.193051 0-.364945-.0714-.16925-.07405-.296188-.200985-.126937-.126937-.200984-.296187-.0714-.16925-.0714-.362301v-2.036289q0-.193051.0714-.362301.07405-.16925.200984-.296187.126938-.126938.296188-.19834.171894-.07405.364945-.07405h.269742q.193051 0 .362301.07405.16925.0714.296187.19834.126938.126937.19834.296187.07405.16925.07405.362301zm-.341144-2.036289q0-.126937-.0476-.235363-.0476-.111071-.129582-.193051-.08198-.08198-.193051-.129582-.108426-.0476-.235363-.0476h-.238008q-.126937 0-.238008.0476-.108426.0476-.193051.129582-.08198.08198-.129582.193051-.0476.108426-.0476.235363v2.036289q0 .126938.0476.238008.0476.108426.129582.193051.08462.08198.193051.129582.111071.0476.238008.0476h.238008q.126937 0 .235363-.0476.11107-.0476.193051-.129582.08198-.08462.129582-.193051.0476-.11107.0476-.238008z"/><path d="m40.394078 73.621017v3.46698h-.341145v-3.46698h-.90443v-.325277h2.150004v.325277z"/><path d="m43.921882 76.210013q0 .193051-.07405.362301-.0714.16925-.19834.296187-.126937.126938-.296187.200985-.16925.0714-.362301.0714h-.269742q-.193051 0-.364945-.0714-.16925-.07405-.296188-.200985-.126937-.126937-.200984-.296187-.0714-.16925-.0714-.362301v-2.036289q0-.193051.0714-.362301.07405-.16925.200984-.296187.126938-.126938.296188-.19834.171894-.07405.364945-.07405h.269742q.193051 0 .362301.07405.16925.0714.296187.19834.126938.126937.19834.296187.07405.16925.07405.362301zm-.341145-2.036289q0-.126937-.0476-.235363-.0476-.111071-.129582-.193051-.08198-.08198-.193051-.129582-.108426-.0476-.235363-.0476h-.238008q-.126937 0-.238008.0476-.108426.0476-.193051.129582-.08198.08198-.129582.193051-.0476.108426-.0476.235363v2.036289q0 .126938.0476.238008.0476.108426.129582.193051.08463.08198.193051.129582.111071.0476.238008.0476h.238008q.126937 0 .235363-.0476.11107-.0476.193051-.129582.08198-.08462.129582-.193051.0476-.11107.0476-.238008z"/><path d="m46.524101 77.087997-1.028723-1.618453h-.468082v1.618453h-.341145v-3.792257h1.203262q.193051 0 .362301.07405.16925.0714.296187.198339.126938.126938.19834.298832.07405.16925.07405.362301v.306766q0 .193051-.07405.364945-.0714.16925-.19834.296188-.126937.126937-.296187.200984-.16925.0714-.362301.0714l1.028723 1.618453zm-.04496-2.858738q0-.126937-.0476-.235363-.0476-.11107-.129582-.193051-.08198-.08462-.193051-.132226-.108426-.0476-.235363-.0476h-.84625v1.52325h.84625q.126937 0 .235363-.0476.11107-.0476.193051-.129582.08198-.08463.129582-.19305.0476-.111071.0476-.238008z"/><path d="m49.644648 76.210013q0 .193051-.07934.362301-.07669.16925-.208918.296187-.129582.126938-.304121.200985-.171895.0714-.364945.0714h-.272387q-.193051 0-.36759-.0714-.171894-.07405-.304121-.200985-.129582-.126937-.208918-.296187-.07669-.16925-.07669-.362301v-.150738l.341144-.05554v.206273q0 .126938.05025.238008.05289.108426.14016.193051.08727.08198.200985.129582.116359.0476.243297.0476h.238007q.126938 0 .240653-.0476.113715-.0476.200984-.129582.08727-.08462.137516-.193051.05289-.11107.05289-.238008v-.113715q0-.195695-.07669-.325277-.07669-.129582-.203629-.219496-.126937-.09256-.288254-.156028-.158672-.06347-.327922-.126937-.16925-.06347-.330566-.14016-.158672-.07669-.285609-.190406-.126938-.11636-.203629-.282965-.07669-.166606-.07669-.409903v-.0714q0-.193051.0714-.362301.07405-.16925.200984-.296187.126937-.126938.296187-.19834.171895-.07405.364946-.07405h.243297q.19305 0 .3623.07405.16925.0714.296188.19834.126937.126937.19834.296187.07405.16925.07405.362301v.09785l-.341145.05553v-.153383q0-.126937-.0476-.235363-.0476-.111071-.129582-.193051-.08198-.08198-.193051-.129582-.108426-.0476-.235364-.0476h-.211562q-.126938 0-.238008.0476-.108426.0476-.193051.129582-.08198.08198-.129582.193051-.0476.108426-.0476.235363v.0714q0 .182473.07669.306766.07669.124293.203629.214207.126938.08727.285609.153383.161317.06347.330567.132226.16925.06611.327922.148094.161316.07934.288254.19834.126937.116359.203629.285609.07669.16925.07669.412547z"/></g></g></svg>